<svg aria-hidden="true" xmlns="http://www.w3.org/2000/svg"><defs><symbol id="icon-close-icon" viewBox="0 0 32 32"><path stroke-width="2.133" d="m8.533 8.533 14.933 14.933m-14.933.001L23.466 8.534"/></symbol>

<symbol id="icon-close" viewBox="0 0 32 32"><path fill="currentColor" d="M23.734 10.304 22.23 8.8l-5.963 5.962L10.305 8.8l-1.504 1.504 5.962 5.962-5.962 5.963 1.504 1.504 5.962-5.963 5.963 5.963 1.504-1.504-5.963-5.963 5.963-5.962z"/></symbol>

<symbol id="icon-heart" viewBox="0 0 32 32">
<path fill="#ff6b08" style="fill: var(--color1, #ff6b08)" d="M16 30.144l-2.24-2.217c-8.32-7.287-13.76-12.201-13.76-18.217 0-4.917 3.84-8.715 8.8-8.715 2.72 0.002 5.44 1.269 7.2 3.326 1.761-2.019 4.329-3.296 7.195-3.323l0.005-0c4.96 0 8.8 3.801 8.8 8.711 0 6.021-5.44 10.933-13.76 18.217l-2.24 2.219z"></path>
</symbol>

</defs></svg>